<svg id="svg2" xmlns:rdf="http://www.w3.org/1999/02/22-rdf-syntax-ns#" xmlns="http://www.w3.org/2000/svg" xml:space="preserve" height="28.721" viewBox="0 0 29.999996 28.721264" width="30" version="1.1" xmlns:cc="http://creativecommons.org/ns#" xmlns:dc="http://purl.org/dc/elements/1.1/"><g id="g10" transform="matrix(1.25 0 0 -1.25 0 28.721)"><path id="path22" d="m12 0.17197c-2.1153-0.02006-4.1832 1.1007-5.353 2.8575h-5.8194c-0.87431 0.03867-0.62803 1.0025-0.66208 1.588v7.2926c0.12395 0.818 1.0743 0.54221 1.6589 0.59125h6.5752c1.8937 3.0788 3.2217 6.5719 3.5598 10.185 0.17907-0.11908 0.20248-1.7168 0.43776-2.366 0.63275-2.7555 1.6947-5.4243 3.2034-7.8189h7.572c0.87431-0.03867 0.62803-1.0025 0.66208-1.588v-7.2926c-0.12395-0.818-1.0743-0.54221-1.6589-0.59125h-4.8226c-1.174-1.7594-3.233-2.876-5.353-2.8578z" stroke="#000" stroke-width=".33091" fill="#f2756a"/></g></svg>
